<?xml version="1.0" encoding="utf-8"?>
<!-- Generator: Adobe Illustrator 24.1.3, SVG Export Plug-In . SVG Version: 6.00 Build 0)  -->
<svg version="1.1" id="Capa_1" xmlns="http://www.w3.org/2000/svg" xmlns:xlink="http://www.w3.org/1999/xlink" x="0px" y="0px"
	 viewBox="0 0 581.4 581.4" style="enable-background:new 0 0 581.4 581.4;" xml:space="preserve" fill="#EF6F6C">
<g>
	<g id="Layer_1_117_">
		<g>
			<path d="M289.4,376.1c-28,0-51,23-51,51v103.3c0,28,23,51,51,51s51-23,51-51V427.1C340.4,399.1,317.5,376.1,289.4,376.1z"/>
			<path d="M474.3,63.8h-98.2C364.6,26.8,330.2,0,289.4,0s-75.2,26.8-86.7,63.8h-96.9c-14,0-25.5,11.5-25.5,25.5
				s11.5,25.5,25.5,25.5H204l0,0c6.4,21.7,20.4,39.5,39.5,51c-68.9,20.4-119.8,84.1-119.8,159.4V459c0,23,19.1,42.1,42.1,42.1h34.4
				v-72.7c0-49.7,40.8-90.5,90.5-90.5s90.5,40.8,90.5,90.5v72.7h34.4c23,0,42.1-19.1,42.1-42.1V326.4c0-75.2-51-140.2-119.9-159.4
				c19.1-11.5,33.1-29.3,39.5-51l0,0h98.2c14,0,25.5-11.5,25.5-25.5C499.8,75.2,488.3,63.8,474.3,63.8z M289.4,141.5
				c-28,0-51-22.9-51-51s23-51,51-51s51,23,51,51C341.7,118.6,318.8,141.5,289.4,141.5z"/>
		</g>
	</g>
</g>
</svg>
